<svg xmlns="http://www.w3.org/2000/svg" viewBox="0 0 337.77 556.1"><defs><style>.cls-1,.cls-2{fill:#705261;}.cls-1{opacity:0.7;}</style></defs><title>AkuAsset 7</title><g id="Layer_2" data-name="Layer 2"><g id="Schulmedizin"><g id="Schulmedizin5"><path class="cls-1" d="M120,283.83s-227.32-87.9-27-254.1C177.67-40.55,356.07,82,336.25,274.82c-8.48,82.48-79,165.25-120.74,198.22-34.24,27-25.23,77.49-113.53,82.9-41.41,2.53-84.7-23.43-79.29-113.53C23.54,428.26,24.3,416,25,405.32,27,374,27.13,328.61,42.2,301c9.2-16.83,6.52-57.63,0-107Z"/><path class="cls-2" d="M104.37,242.42a112.14,112.14,0,0,1-10.12-7.5c-3.25-2.67-6.4-5.47-9.39-8.42a135.87,135.87,0,0,1-16.38-19.27A115.19,115.19,0,0,1,56.23,185a98.62,98.62,0,0,1-6.62-24.69c-.2-2.13-.41-4.27-.56-6.4v-6.43a31.39,31.39,0,0,1,.18-3.21l.24-3.2a59.09,59.09,0,0,1,.8-6.36l.49-3.18c.13-1.06.45-2.08.67-3.13.51-2.07.95-4.17,1.51-6.23a127.74,127.74,0,0,1,4.2-12.08l1.2-3,.6-1.48c.22-.49.46-1,.69-1.44l2.82-5.73c.88-1.94,2-3.73,3.07-5.58s2.11-3.69,3.21-5.5l3.54-5.29c1.2-1.75,2.29-3.57,3.64-5.23l3.91-5.07L84.08,67a91.18,91.18,0,0,1,20-16.1,81.48,81.48,0,0,1,23.89-9.4,92.71,92.71,0,0,1,25.56-1.93A115.14,115.14,0,0,1,178.65,44a144.69,144.69,0,0,1,45.62,22.32A75,75,0,0,1,234,74.77q4.35,4.59,8.51,9.4t7.93,10c2.53,3.41,4.89,6.93,7.19,10.49,4.54,7.15,8.7,14.49,12.7,21.89q3,5.55,5.91,11.14c.51.9.92,2,1.38,2.94s.94,2,1.29,3c.68,2,1.46,4,2.06,6.08a234.17,234.17,0,0,1,5.81,24.71c1.6,8.28,2.82,16.62,3.94,25,2.1,16.71,3.63,33.5,3.52,50.45,0,2.12-.15,4.25-.22,6.38s-.39,4.27-.57,6.41c-.53,4.23-1.29,8.38-2.1,12.53q-2.46,12.42-5.77,24.63a382.72,382.72,0,0,1-16.17,47.91c-3.25,7.79-6.81,15.46-10.78,22.93l-3,5.57-3.23,5.48c-2.21,3.61-4.5,7.19-7.06,10.59A118.51,118.51,0,0,1,228,411q-9.48,8.25-18.82,16.67t-18.5,17.05l-9.19,8.6c-1.55,1.42-3.08,2.85-4.68,4.22a34.26,34.26,0,0,1-5,3.78,33.66,33.66,0,0,0,4.84-4c1.53-1.44,3-2.93,4.47-4.42l8.8-9q8.84-9,17.86-17.77T226,408.72a113.66,113.66,0,0,0,16.06-18.83c9.67-13.46,17.26-28.41,23.68-43.77a380.67,380.67,0,0,0,16-47.41c2.17-8.06,4.09-16.19,5.7-24.36.8-4.09,1.55-8.19,2.06-12.28.18-2,.45-4.06.54-6.12s.18-4.13.22-6.2c.11-16.62-1.4-33.33-3.49-49.89-1.11-8.28-2.32-16.55-3.9-24.74a228.92,228.92,0,0,0-5.71-24.27c-.57-2-1.32-3.89-2-5.83-.33-1-.8-1.85-1.19-2.77s-.76-1.83-1.28-2.76q-2.91-5.56-5.89-11.09c-4-7.35-8.09-14.62-12.55-21.64-2.25-3.49-4.56-6.94-7-10.26s-5-6.57-7.75-9.73-5.51-6.22-8.38-9.25a69.6,69.6,0,0,0-9.22-8,140.9,140.9,0,0,0-44.32-21.69,110.69,110.69,0,0,0-24.32-4.24,89.11,89.11,0,0,0-24.45,1.83,77.8,77.8,0,0,0-22.73,8.94A87.63,87.63,0,0,0,87,69.73C81.25,75.64,76.71,82.59,72.11,89.5,71,91.27,70,93.08,69,94.86s-2.14,3.55-3,5.44l-2.73,5.56c-.23.47-.47.93-.68,1.4L62,108.69l-1.16,2.87a123.09,123.09,0,0,0-4.06,11.68c-.53,2-1,4-1.45,6-.21,1-.53,2-.65,3l-.47,3.05a92.11,92.11,0,0,0-.6,24.54,97.24,97.24,0,0,0,5.5,24A112.62,112.62,0,0,0,70.25,206a133.34,133.34,0,0,0,15.44,19.64c2.84,3.07,5.84,6,8.94,8.8A112.76,112.76,0,0,0,104.37,242.42Z"/><path class="cls-2" d="M82,73.22c6.39,4.37,12.43,9.19,18.41,14.11,5.53,5.38,11,10.85,16.23,16.54a195.91,195.91,0,0,1,14.9,17.89,76,76,0,0,1,6.27,10,32.52,32.52,0,0,1,2.29,5.69,16.89,16.89,0,0,1,.62,3.18,10.85,10.85,0,0,1-.17,3.48,8.1,8.1,0,0,1-1.6,3.41,13.86,13.86,0,0,1-2.61,2.29,23.77,23.77,0,0,1-5.74,2.65,48.41,48.41,0,0,1-11.88,1.82,122.92,122.92,0,0,1-23.36-1.63,212.72,212.72,0,0,1-22.75-4.9c-7.29-2.67-14.56-5.59-21.16-9.66a150.69,150.69,0,0,0,22.22,5.8,205.1,205.1,0,0,0,22.31,4.81,119.17,119.17,0,0,0,22.57,1.58,44.11,44.11,0,0,0,10.86-1.64,19.56,19.56,0,0,0,4.7-2.15,11.08,11.08,0,0,0,1.72-1.47,4.06,4.06,0,0,0,.81-1.77,6.92,6.92,0,0,0,.1-2.25,13.06,13.06,0,0,0-.49-2.46,29.59,29.59,0,0,0-2-5,73.92,73.92,0,0,0-5.94-9.49,193.88,193.88,0,0,0-14.6-17.52q-7.79-8.4-16.09-16.35Q89.9,81.63,82,73.22Z"/><path class="cls-2" d="M56,180.07a88.63,88.63,0,0,0,8.06,5.15,41,41,0,0,0,4.26,2.1,10.74,10.74,0,0,0,4.41,1.07c6.4-.15,12.81-.08,19.22.16a255.66,255.66,0,0,1,38.34,4.06c3.17.63,6.31,1.44,9.42,2.36s6.21,1.94,9.26,3.1a75,75,0,0,1,9,4.1l2.15,1.23,2.1,1.36c1.38.92,2.64,1.9,4,2.85a130.66,130.66,0,0,1,14.73,12.7,105.11,105.11,0,0,1,12.35,15.13,79.53,79.53,0,0,1,8.7,17.58,68,68,0,0,1,3.76,19.29c.53,6.57-.41,13.16-1.5,19.55-1.22,6.21-2.12,12.48-2.86,18.8S200,323.34,199,329.76s-2.49,12.92-5.59,18.91a42.42,42.42,0,0,1-13.21,14.9,72.16,72.16,0,0,1-8.41,5.17c-2.92,1.43-5.78,2.94-8.84,4.14l-2.26.94-2.34.81c-.78.26-1.55.54-2.34.79l-2.41.63a49,49,0,0,1-4.91,1,42.34,42.34,0,0,1-5,.33c-3.37.05-6.68-.5-9.62-.6a15.86,15.86,0,0,0-8.22,2c-1.28.79-2.58,1.48-3.82,2.41s-2.49,1.87-3.72,2.85c-2.46,2-4.87,4-7.28,6.12L96.55,402.75c-4.84,4.2-9.74,8.35-14.85,12.3-2.56,2-5.16,3.89-7.89,5.69a53.44,53.44,0,0,1-8.71,4.82A18.83,18.83,0,0,1,59.94,427a8.9,8.9,0,0,1-3-.14,6.89,6.89,0,0,1-3-1.45,11.53,11.53,0,0,1-3.16-4.82,28,28,0,0,1-1.29-5,60.15,60.15,0,0,1-.73-9.88c0-3.27.18-6.52.46-9.75a162.87,162.87,0,0,1,2.91-19.18A151.19,151.19,0,0,1,57.3,358,95.56,95.56,0,0,1,61,349a52.22,52.22,0,0,1,5-8.61,16.77,16.77,0,0,0,3.31-7.81,17.61,17.61,0,0,0-1.37-8.35,58.88,58.88,0,0,0-4.14-8.3c-1.57-2.76-3.22-5.52-4.73-8.4A52.35,52.35,0,0,1,52.84,289a64.51,64.51,0,0,1-.17-9.71q.13-4.8.34-9.6c.15-3.19.32-6.39.55-9.58a92.7,92.7,0,0,1,1-9.54,95.51,95.51,0,0,0-.47,9.57c0,3.19,0,6.38,0,9.57l.14,9.58a62.12,62.12,0,0,0,.63,9.42A49.56,49.56,0,0,0,61.67,306c1.59,2.71,3.35,5.35,5.09,8.06a63.22,63.22,0,0,1,4.83,8.61A19.64,19.64,0,0,1,73.26,333a21.44,21.44,0,0,1-4.07,9.66c-3.56,4.93-6,10.76-8.12,16.66a151.46,151.46,0,0,0-5,18.22,160.18,160.18,0,0,0-2.84,18.7c-.27,3.14-.44,6.28-.44,9.4a57.15,57.15,0,0,0,.67,9.21,23.52,23.52,0,0,0,1.1,4.26,7.62,7.62,0,0,0,2,3.16,2.91,2.91,0,0,0,1.28.63,5.22,5.22,0,0,0,1.74.06,15,15,0,0,0,4-1.14,50.63,50.63,0,0,0,8-4.46c2.61-1.72,5.15-3.59,7.65-5.52,5-3.86,9.86-8,14.67-12.15l14.43-12.62c2.43-2.1,4.87-4.19,7.39-6.22,1.27-1,2.55-2,3.89-3s2.83-1.82,4.28-2.7l2.38-1.08c.81-.35,1.69-.55,2.54-.82s1.76-.32,2.64-.47,1.78-.1,2.63-.07c3.45.12,6.48.64,9.51.59a40,40,0,0,0,4.52-.29,43.36,43.36,0,0,0,4.48-.91l2.23-.58c.73-.23,1.46-.49,2.2-.74l2.19-.75,2.16-.91c2.91-1.13,5.7-2.61,8.51-4a69.06,69.06,0,0,0,7.92-4.86,38.5,38.5,0,0,0,12-13.51c2.8-5.39,4.22-11.49,5.19-17.69s1.55-12.59,2.31-19,1.67-12.76,2.92-19.09c.29-1.58.48-3.09.73-4.64a34.42,34.42,0,0,0,.56-4.63l.28-4.65c0-1.55-.1-3.1-.14-4.65a64.34,64.34,0,0,0-3.55-18.2,76.23,76.23,0,0,0-8.26-16.68A102.24,102.24,0,0,0,178,223.12a127.84,127.84,0,0,0-14.28-12.3c-9.75-7.83-22-11.47-34.31-14.27a257.44,257.44,0,0,0-37.62-5.87c-6.34-.56-12.71-1-19.09-1.12A11.82,11.82,0,0,1,68,188.12a42.24,42.24,0,0,1-4.2-2.4A88.38,88.38,0,0,1,56,180.07Z"/><path class="cls-2" d="M111.51,276.09c-6.83-2.65-13.48-5.76-20-9.07S78.55,260.1,72.3,256.24a211,211,0,0,1-34.95-26.81c-10.59-10.22-20.07-21.85-26.8-35.14A98.59,98.59,0,0,1,2.7,173.41,90.84,90.84,0,0,1,0,151.19,94.84,94.84,0,0,1,2.82,129a120.06,120.06,0,0,1,7.29-21.09c.69-1.72,1.57-3.36,2.38-5s1.62-3.34,2.55-5l2.69-4.87,2.91-4.73c.95-1.59,2-3.12,3-4.65s2.06-3.08,3.13-4.59l3.29-4.46,1.65-2.23,1.74-2.16A301.42,301.42,0,0,1,63.54,37.82Q71.61,30.28,80,23.15a107,107,0,0,1,8.76-6.92c1.54-1.07,3.07-2.15,4.7-3.08l2.4-1.46,2.49-1.32a89.81,89.81,0,0,1,21-7.82A100.33,100.33,0,0,1,141.63,0a130.42,130.42,0,0,1,43.73,7.78,177,177,0,0,1,39.57,20A217.3,217.3,0,0,1,259,56.05,247.25,247.25,0,0,1,308.53,129a264.72,264.72,0,0,1,21.79,85.42,292.85,292.85,0,0,1,.19,44.23l-.48,5.51-.25,2.75c-.08.92-.22,1.84-.33,2.76l-.7,5.51-.93,5.48c-.28,1.83-.67,3.64-1.07,5.45s-.74,3.62-1.19,5.42c-.93,3.58-1.79,7.18-2.89,10.7-8.4,28.4-22.12,54.87-38.32,79.42A413.66,413.66,0,0,1,258,417.09q-7.08,8.48-14.54,16.61T228,449.48c-5.32,5.11-10.79,10.06-16.5,14.75-1.41,1.16-2.93,2.34-4.25,3.48l-2,1.71-1.92,1.84a71.24,71.24,0,0,0-7.07,8c-8.75,11.38-14.84,24.94-24.1,36.75A79.42,79.42,0,0,1,156,531.69a84.16,84.16,0,0,1-19.87,10.42c-14.07,5.16-28.9,7.27-43.65,8.14a89.72,89.72,0,0,1-11.24-.16,82.58,82.58,0,0,1-11.14-1.7,67.72,67.72,0,0,1-20.85-8.56,66.56,66.56,0,0,1-16.77-15.06,76.64,76.64,0,0,1-11.24-19.44,114.62,114.62,0,0,1-6.16-21.45,154.61,154.61,0,0,1-2.51-22c-.88-14.77.58-29.48,1.57-44.06,2.17-29.23,4.18-58.47,7.23-87.63-.66,7.3-1.09,14.62-1.55,21.93L18.6,374l-2.33,43.89c-.68,14.64-1.81,29.24-.62,43.75a150.8,150.8,0,0,0,2.92,21.53,110.82,110.82,0,0,0,6.4,20.6,90.26,90.26,0,0,0,4.75,9.61c.87,1.56,1.88,3,2.8,4.56l1.56,2.17c.52.72,1,1.46,1.6,2.13a61,61,0,0,0,15.74,14.18,63.65,63.65,0,0,0,19.61,8A78.41,78.41,0,0,0,81.6,546.1a83.33,83.33,0,0,0,10.72.15c14.44-.85,29-2.93,42.45-7.89a79.84,79.84,0,0,0,18.93-9.92A75.12,75.12,0,0,0,169,513.57a176.38,176.38,0,0,0,12-18.13c1.89-3.13,3.76-6.3,5.76-9.42,1-1.57,2-3.1,3.05-4.65s2.13-3.06,3.3-4.52a76.46,76.46,0,0,1,7.45-8.45l2-1.95,2.17-1.83c1.46-1.25,2.83-2.31,4.25-3.48,5.61-4.61,11-9.49,16.26-14.54s10.35-10.26,15.3-15.61,9.73-10.86,14.4-16.46A410.71,410.71,0,0,0,281,379.44c16-24.3,29.57-50.46,37.81-78.35,1.09-3.46,1.93-7,2.84-10.5.44-1.76.77-3.55,1.17-5.32s.77-3.54,1-5.33l.92-5.36.68-5.38c.11-.9.24-1.8.33-2.7l.23-2.72.48-5.43a288.43,288.43,0,0,0-.18-43.6,261,261,0,0,0-21.46-84.14,243.36,243.36,0,0,0-48.71-71.75,213.07,213.07,0,0,0-33.45-27.75A172.9,172.9,0,0,0,184,11.56,126.28,126.28,0,0,0,141.66,4a96.3,96.3,0,0,0-21.35,2.45,84.86,84.86,0,0,0-20.06,7.47l-2.37,1.25-2.3,1.39c-1.55.89-3,1.92-4.48,2.94a102.08,102.08,0,0,0-8.47,6.71q-8.38,7-16.35,14.53a297.75,297.75,0,0,0-29.66,32l-1.71,2.12L33.29,77,30.06,81.4c-1,1.48-2,3-3.06,4.49s-2.05,3-3,4.56l-2.84,4.62-2.63,4.75c-.91,1.57-1.69,3.2-2.49,4.82s-1.64,3.22-2.31,4.89A106.13,106.13,0,0,0,4,151.24a88.59,88.59,0,0,0,2.15,21.34,95.17,95.17,0,0,0,7.14,20.33c6.25,13.05,15.28,24.68,25.52,35a209.58,209.58,0,0,0,34.09,27.34q9.16,6,18.83,11.25C98.2,270,104.76,273.26,111.51,276.09Z"/><circle class="cls-2" cx="194.87" cy="68.47" r="10.71"/><circle class="cls-2" cx="76.02" cy="498.9" r="10.71"/><circle class="cls-2" cx="285.39" cy="252.15" r="10.71"/></g></g></g></svg>