<svg xmlns="http://www.w3.org/2000/svg" viewBox="0 0 348.56 546.99"><defs><style>.cls-1{fill:none;stroke:#705261;stroke-miterlimit:10;stroke-width:4px;}.cls-2{fill:#705261;opacity:0.7;}</style></defs><title>ErAsset 10</title><g id="Layer_2" data-name="Layer 2"><g id="Schulmedizin"><g id="Schulmedizin5"><path class="cls-1" d="M101,253.71l11.75,274.66a12,12,0,0,1-12,12.55l-25.16,0a12,12,0,0,1-11.93-12.42l5.74-274.39a11.77,11.77,0,0,0-6.71-11.2C29.22,227.58,2,179,2,123.66,2,56.59,42,4.89,84.7,4.89s82.82,51.7,82.82,118.77c0,54.86-26.82,103-60,118.79A11.77,11.77,0,0,0,101,253.71Z"/><path class="cls-1" d="M296.28,251.56l12.56,286.86a6.26,6.26,0,0,1-6.27,6.57l-35.81,0a6.28,6.28,0,0,1-6.26-6.51l5.11-284.55a6.25,6.25,0,0,0-4.65-6.27c-23.77-6.4-42.83-26.88-45.22-63.34C212.28,164.37,224.18,37,226.9,8.66A6.24,6.24,0,0,1,233.06,3h0a6.27,6.27,0,0,1,6.34,6.27V173a6.27,6.27,0,0,0,6.27,6.27h2.22a6.27,6.27,0,0,0,6.27-6.27V9a6.26,6.26,0,0,1,6.2-6.26l3.08,0a6.27,6.27,0,0,1,6.34,6.27V171.87a6.27,6.27,0,0,0,6.27,6.27h2.22a6.27,6.27,0,0,0,6.27-6.27V8.62a6.27,6.27,0,0,1,6.2-6.27l3,0a6.27,6.27,0,0,1,6.34,6.27V172.52a6.27,6.27,0,0,0,6.27,6.27h2.22a6.27,6.27,0,0,0,6.27-6.27V8.27A6.26,6.26,0,0,1,321,2h.39a6.26,6.26,0,0,1,6.18,4.8c9.39,39.68,14.73,178,14.73,178,1.13,28.73-18.83,51.5-42.2,60.64A6.19,6.19,0,0,0,296.28,251.56Z"/><path class="cls-2" d="M107.2,256.15l10.23,274.9a12,12,0,0,1-12,12.55l-25.16,0a12,12,0,0,1-11.94-12.42l7.27-274.62a11.75,11.75,0,0,0-6.71-11.2C35.41,230,8.19,181.48,8.19,126.11,8.19,59,48.17,7.33,90.89,7.33S173.71,59,173.71,126.11c0,54.86-26.82,103-60,118.79A11.77,11.77,0,0,0,107.2,256.15Z"/><path class="cls-2" d="M302.47,254l10.06,286.25a6.27,6.27,0,0,1-6.27,6.57l-35.82-.05a6.27,6.27,0,0,1-6.26-6.5l7.62-284a6.25,6.25,0,0,0-4.65-6.27c-23.77-6.4-42.83-26.87-45.22-63.33-3.46-19.9,8.44-147.25,11.16-175.61a6.25,6.25,0,0,1,6.16-5.66h0a6.27,6.27,0,0,1,6.34,6.27v163.7a6.27,6.27,0,0,0,6.27,6.26h2.22a6.26,6.26,0,0,0,6.27-6.26v-164a6.28,6.28,0,0,1,6.2-6.27l3.08,0A6.27,6.27,0,0,1,276,11.38V174.32a6.27,6.27,0,0,0,6.27,6.27h2.22a6.27,6.27,0,0,0,6.27-6.27V11.07a6.27,6.27,0,0,1,6.2-6.27l3,0A6.27,6.27,0,0,1,306.26,11V175a6.27,6.27,0,0,0,6.27,6.27h2.22A6.27,6.27,0,0,0,321,175V10.72a6.27,6.27,0,0,1,6.19-6.27h.39a6.23,6.23,0,0,1,6.18,4.8c9.39,39.68,14.73,178.05,14.73,178.05,1.13,28.73-18.83,51.5-42.2,60.63A6.19,6.19,0,0,0,302.47,254Z"/></g></g></g></svg>