<svg xmlns="http://www.w3.org/2000/svg" viewBox="0 0 374.23 536.04"><defs><style>.cls-1,.cls-3,.cls-5{fill:#705261;}.cls-1{stroke:#fff;}.cls-1,.cls-4{stroke-miterlimit:10;stroke-width:4px;}.cls-2,.cls-3{opacity:0.7;}.cls-4,.cls-6{fill:none;}.cls-4{stroke:#705261;}</style></defs><title>HomAsset 8</title><g id="Layer_2" data-name="Layer 2"><g id="Schulmedizin"><g id="Schulmedizin5"><circle class="cls-1" cx="148.84" cy="455.51" r="13.4"/><circle class="cls-1" cx="175.64" cy="508.21" r="13.4"/><circle class="cls-1" cx="175.64" cy="482.31" r="13.4"/><circle class="cls-1" cx="162.24" cy="494.81" r="13.4"/><circle class="cls-1" cx="148.84" cy="508.21" r="13.4"/><circle class="cls-1" cx="41.15" cy="487.63" r="13.4"/><circle class="cls-1" cx="20.7" cy="501.03" r="13.4"/><circle class="cls-1" cx="89.39" cy="514.42" r="13.4"/><circle class="cls-1" cx="102.79" cy="505.39" r="13.4"/><circle class="cls-1" cx="125.98" cy="494.81" r="13.4"/><circle class="cls-1" cx="125.98" cy="514.42" r="13.4"/><circle class="cls-1" cx="139.38" cy="481.41" r="13.4"/><circle class="cls-1" cx="102.79" cy="468.91" r="13.4"/><circle class="cls-1" cx="85.78" cy="481.41" r="13.4"/><circle class="cls-1" cx="75.99" cy="495.71" r="13.4"/><circle class="cls-1" cx="43.64" cy="514.42" r="13.4"/><circle class="cls-1" cx="164.43" cy="418.69" r="13.4"/><circle class="cls-1" cx="180.37" cy="426.85" r="13.4"/><circle class="cls-1" cx="20.7" cy="442.11" r="13.4"/><circle class="cls-1" cx="20.7" cy="427.82" r="13.4"/><circle class="cls-1" cx="62.59" cy="449.13" r="13.4"/><circle class="cls-1" cx="102.83" cy="434.03" r="13.4"/><circle class="cls-1" cx="125.98" cy="447.43" r="13.4"/><circle class="cls-1" cx="84.77" cy="452.78" r="13.4"/><circle class="cls-1" cx="180.37" cy="447.43" r="13.4"/><circle class="cls-1" cx="43.64" cy="468.01" r="13.4"/><circle class="cls-1" cx="20.7" cy="474.23" r="13.4"/><circle class="cls-1" cx="41.15" cy="447.43" r="13.4"/><circle class="cls-1" cx="157.83" cy="435.73" r="13.4"/><circle class="cls-1" cx="62.59" cy="508.21" r="13.4"/><circle class="cls-1" cx="62.59" cy="474.23" r="13.4"/><circle class="cls-1" cx="180.37" cy="460.83" r="13.4"/><circle class="cls-1" cx="157.83" cy="468.01" r="13.4"/><circle class="cls-1" cx="122.04" cy="468.01" r="13.4"/><circle class="cls-1" cx="112.58" cy="487.63" r="13.4"/><g class="cls-2"><path class="cls-3" d="M183.21,168.57c0,1.23,0,1.92,0,1.92h-.06s0-.7,0-1.94Z"/><path class="cls-3" d="M183.21,168.57c0,1.23,0,1.92,0,1.92h-.06s0-.7,0-1.94Z"/><path class="cls-3" d="M196.93,253.49c3.11,6.65-2.22,236.86-3.11,255.94s-21.73,20-28.82,21.29A405.22,405.22,0,0,1,102.58,536c-27.36,0-38.72-1.34-64.89-6.65s-29.9-18-29.38-24.4c.2-2.42-.34-233.32,0-248s25.4-30.2,25.4-30.2l2.87,0c-3.3-.86-6.29-1.71-9-2.47-20.43-5.76-20-20.86-20-20.86V177.65a7.31,7.31,0,0,0,.76.62,3.17,3.17,0,0,1-.76-1.9c0-2.9,5.9-5.59,16-7.83,0,1.25,0,2,0,2h.65s0-.7,0-2c.2-8,1-38.66,2.45-50.9C28.32,104.19,55.36,19.44,58,11.08a.36.36,0,0,1,.55-.18h0c-.24-.16-.37-.33-.37-.49,0-2.16,20.78-3.91,46.41-3.91s46.39,1.75,46.39,3.91c4.14,1.61,27.63,97.91,30.06,107.64,2.12,8.47,2.13,42,2.1,50.49v0l-.06,0c0,1.24,0,1.94,0,1.94h.06s0-.69,0-1.92c10.07,2.23,15.93,4.91,15.93,7.8,0,.1,0,.2,0,.3l.06-.06s.59,6.42.59,27.46c0,15.61-16.38,20.31-16.38,20.31q-7.66,2-14.94,3.55l2.6,0C184.64,233.79,193.82,246.83,196.93,253.49Z"/></g><path class="cls-4" d="M2,171.81V201.2s-.44,15.09,20,20.86c2.69.76,5.67,1.6,9,2.46"/><path class="cls-4" d="M18,166s0-.7.05-1.94C7.9,166.28,2,169,2,171.86"/><path class="cls-4" d="M193.53,171.49s.63,9.21.63,30.26c0,15.6-16.37,20.31-16.37,20.31q-7.65,2-14.95,3.54"/><path class="cls-4" d="M18.63,166s0-.7.05-1.94c.2-8,1-38.66,2.45-50.91C22.72,99.69,49.76,14.93,52.44,6.57A.36.36,0,0,1,53,6.39c-.24-.16-.35-.32-.35-.48C52.65,3.75,73.43,2,99.05,2s46.4,1.75,46.4,3.91c4.14,1.61,27.63,97.92,30.06,107.64,2.12,8.47,2.13,42,2.09,50.49v0c10.07,2.23,15.94,4.91,15.94,7.8"/><path class="cls-4" d="M188.23,507.1c-.89,19.07-21.74,20-28.84,21.3A406.61,406.61,0,0,1,97,533.71c-27.37,0-38.73-1.32-64.9-6.65S2.18,509,2.71,502.67c.2-2.42-.34-233.32,0-247.95s25.4-30.22,25.4-30.22l2.84,0,131.89,1.08,2.61,0c13.6,5.85,22.78,18.89,25.88,25.54S189.11,488,188.23,507.1Z"/><path class="cls-4" d="M232.36,519.69,268,497s7.75-65.66,55.41-75.69c22.55-4.75,34.89-29.93,38.13-46.12s21.43,70.49-3.33,98.35c-16.95,19.07-46.47,29.07-90.19,24.21"/><path class="cls-5" d="M280.64,482.49a184.74,184.74,0,0,0,20.65-9.79,152.11,152.11,0,0,0,19.17-12.21,95.39,95.39,0,0,0,8.6-7.29c2.73-2.57,5.38-5.19,7.87-7.95l1-1,.9-1.06c.59-.71,1.22-1.4,1.78-2.14l1.72-2.2,1.6-2.28a72.22,72.22,0,0,0,5.56-9.86l.39.11c-1.12,7.72-4.94,15-9.88,21.06-.64.74-1.23,1.53-1.91,2.24l-2,2.14c-1.42,1.35-2.84,2.7-4.36,3.93-3,2.47-6.14,4.78-9.36,6.93a155.41,155.41,0,0,1-20.12,11.38Q297,476.93,291.62,479c-3.57,1.41-7.17,2.72-10.85,3.83Z"/><path class="cls-4" d="M272,514.74,256.45,491.3s20.06-43.18-8.43-58.69C228,421.69,229.58,391.72,232,381s-31.59,47.95-24.07,71.61c5.14,16.19,20.39,30.27,48.3,39.16"/><path class="cls-5" d="M249.49,480.46a109.22,109.22,0,0,1-11-10.75q-2.55-2.88-4.92-5.95c-1.57-2.05-3-4.18-4.44-6.36-2.76-4.36-5.54-8.93-6.78-14.13s-1.52-10.72.27-15.69l.39.06a62.18,62.18,0,0,0,1.12,7.44c.15.6.28,1.2.41,1.79l.5,1.77c.36,1.17.68,2.34,1.14,3.48.79,2.31,1.68,4.59,2.59,6.88a60.88,60.88,0,0,0,3.12,6.78,111.75,111.75,0,0,0,8.15,12.67,124.47,124.47,0,0,0,9.7,11.71Z"/><g class="cls-2"><path class="cls-5" d="M361.42,478.6c-16.76,18.86-47.17,28.95-90.11,24.47h-.07c1.12-8,10.94-67.34,55.38-76.69,22.55-4.74,34.89-29.93,38.13-46.12S386.18,450.75,361.42,478.6Z"/><path class="cls-5" d="M269.84,502.92l1.4.14c-.06.45-.09.73-.11.83Z"/><polyline class="cls-6" points="271.13 503.95 271.13 503.89 271.31 503.07 271.5 502.17"/></g><g class="cls-2"><path class="cls-5" d="M252.31,494.13l-.33.41c-27.84-8.88-43.06-23-48.2-39.12-7.52-23.65,26.49-82.33,24.08-71.6s-4.05,40.7,16,51.62C272.36,450.94,252.31,494.13,252.31,494.13Z"/><path class="cls-5" d="M252.09,494.58l-.11,0-.28.36Z"/></g></g></g></g></svg>