<svg xmlns="http://www.w3.org/2000/svg" viewBox="0 0 509.87 470.16"><defs><style>.cls-1{fill:#705261;opacity:0.7;}.cls-2,.cls-3{fill:none;stroke:#56404c;stroke-miterlimit:10;}.cls-2{stroke-width:2px;}.cls-3{stroke-width:3px;}</style></defs><title>MikroAsset 11</title><g id="Layer_2" data-name="Layer 2"><g id="Schulmedizin"><g id="Schulmedizin5"><path class="cls-1" d="M425.75,358.22l-1.49-.41.85-.57C425.33,357.56,425.55,357.89,425.75,358.22Z"/><path class="cls-1" d="M155.16,48.34a5.71,5.71,0,0,1-3.44,5.25L90,80l-.46.17a21.05,21.05,0,0,1,3.69,11.87,20.67,20.67,0,0,1-2.1,9.1L74.67,134.77a20.64,20.64,0,0,1-11.89,10.46,20.68,20.68,0,0,1,1.16,15L53.08,196a20.66,20.66,0,0,1-6.69,10,20.53,20.53,0,0,1,4.09,12.33v37.41a20.77,20.77,0,0,1-7.43,15.9,20.69,20.69,0,0,1,6.69,12.17l5.9,36.94a20.66,20.66,0,0,1-1.9,12.48,20.59,20.59,0,0,1,5.9,10.35L68,380.07a20.71,20.71,0,0,1-3,16.16,20.63,20.63,0,0,1,7.91,12l8.34,36.47A20.79,20.79,0,1,1,40.69,454l-8.33-36.46a20.73,20.73,0,0,1,3-16.18,20.59,20.59,0,0,1-7.91-12l-8.34-36.47a20.63,20.63,0,0,1,1.65-13.81,20.66,20.66,0,0,1-6.16-11.72L8.68,290.39a20.82,20.82,0,0,1,7.16-19.17,20.77,20.77,0,0,1-6.92-15.47V218.34a20.71,20.71,0,0,1,7.57-16A20.83,20.83,0,0,1,13.3,184l10.86-35.81a20.8,20.8,0,0,1,13.13-13.61,20.73,20.73,0,0,1,.06-18.09L53.82,82.86A20.73,20.73,0,0,1,66.3,72.23v-63a5.69,5.69,0,0,1,11.38,0V71.9L78,72l30.72-58.69a5.68,5.68,0,0,1,10.72,2.64,5.56,5.56,0,0,1-.65,2.63L93.93,66l53.31-22.84a5.66,5.66,0,0,1,7.92,5.2Z"/><path class="cls-1" d="M461.5,195.51a14.69,14.69,0,0,1-9.72-14v-.08l-19.46-9.08a77.09,77.09,0,0,1-34.13,34.46l6.65,22.09a14.88,14.88,0,0,1-3.14,29.55,15,15,0,0,1-14.18-15,14.75,14.75,0,0,1,6-11.81l-6.13-20.36a77,77,0,0,1-68.75-10.51L305.18,216.7a14.89,14.89,0,1,1-8.44-8l13-15.39a76.66,76.66,0,0,1-23.24-55.11q0-3.8.36-7.5l-22.24-5.53a14.89,14.89,0,1,1,4.18-10.94l20.07,5a76.9,76.9,0,0,1,51-54.23l-2.3-18.22A14.9,14.9,0,1,1,349,44.43l2.24,17.81a75.48,75.48,0,0,1,12.19-1,74.33,74.33,0,0,1,16.9,1.9,76.8,76.8,0,0,1,44.9,29.23L439,81.05A14.88,14.88,0,1,1,453.4,92.14a14.67,14.67,0,0,1-7.25-1.89l-14.71,12.06a77.07,77.07,0,0,1,5.25,59.24l19.7,9.19A14.72,14.72,0,0,1,468,166.66a14.91,14.91,0,1,1-6.53,28.85Z"/><path class="cls-2" d="M455.94,191.14a14.66,14.66,0,0,1-9.71-14v-.07L426.77,168a77.14,77.14,0,0,1-34.13,34.46l6.64,22.09A14.89,14.89,0,1,1,388,227.28l-6.13-20.36a77,77,0,0,1-68.76-10.5l-13.45,15.91a14.89,14.89,0,1,1-8.44-8l13-15.38a76.69,76.69,0,0,1-23.25-55.11c0-2.54.13-5,.37-7.51l-22.24-5.52a14.89,14.89,0,1,1,4.18-11l20.06,5a76.88,76.88,0,0,1,51-54.22L332,42.38a14.9,14.9,0,1,1,11.42-2.32l2.25,17.81a76.41,76.41,0,0,1,12.18-1,75,75,0,0,1,16.91,1.89A76.88,76.88,0,0,1,419.63,88l13.82-11.34a15.42,15.42,0,0,1-.49-3.81,14.91,14.91,0,1,1,7.63,13l-14.7,12.06a77.14,77.14,0,0,1,5.24,59.25l19.71,9.18a14.73,14.73,0,0,1,11.64-4.07,14.91,14.91,0,1,1-6.54,28.84Z"/><path class="cls-3" d="M148.24,46.28a5.73,5.73,0,0,1-3.44,5.25L83.1,78a4.37,4.37,0,0,1-.46.18A21,21,0,0,1,86.33,90a20.63,20.63,0,0,1-2.1,9.09L67.75,132.69a20.72,20.72,0,0,1-11.89,10.47,20.71,20.71,0,0,1,1.16,15L46.16,193.94a20.58,20.58,0,0,1-6.67,10,20.7,20.7,0,0,1,4.08,12.35v37.41a20.77,20.77,0,0,1-7.43,15.89,20.74,20.74,0,0,1,6.68,12.19l5.9,36.93a20.56,20.56,0,0,1-1.91,12.47,20.6,20.6,0,0,1,5.91,10.36L61.06,378a20.73,20.73,0,0,1-3,16.16,20.66,20.66,0,0,1,7.91,12l8.34,36.47a20.79,20.79,0,1,1-40.53,9.27l-8.34-36.47a20.76,20.76,0,0,1,3-16.17,20.66,20.66,0,0,1-7.91-12l-8.34-36.47A20.63,20.63,0,0,1,13.84,337a20.63,20.63,0,0,1-6.16-11.72L1.76,288.32a20.84,20.84,0,0,1,7.16-19.18A20.74,20.74,0,0,1,2,253.68V216.27a20.74,20.74,0,0,1,7.57-16,20.82,20.82,0,0,1-3.19-18.38l10.86-35.8a20.78,20.78,0,0,1,13.14-13.6,20.68,20.68,0,0,1,.05-18.1L46.9,80.8A20.68,20.68,0,0,1,59.38,70.16v-63a5.69,5.69,0,1,1,11.37,0L74.59,60h.2l27-48.79a5.69,5.69,0,0,1,10.72,2.65,5.44,5.44,0,0,1-.65,2.62L87,63.91l53.31-22.84a5.69,5.69,0,0,1,7.46,3A5.59,5.59,0,0,1,148.24,46.28Z"/><path class="cls-1" d="M498.87,300.49s-11.63-10-16.38-3.69S468.06,359,437.6,353.24c-24.41-4.64-30.23-32.53-58.82-35.07-11.59-1-19.92-7.06-71.15,46.33s-58-8.42-89.45-13c-39.51-5.8-64.81,42.67-62.17,48s8.35,12,16,1.24S198.48,369.9,210.26,370c21.41.25,39.69,46.8,69.08,39.74s54.07-31.63,69.29-50.82c18.54-23.36,40.64-14.26,60.85,7.77s62.07,20.67,82.73-20.68C508.56,313.34,498.87,300.49,498.87,300.49Z"/><path class="cls-1" d="M494.31,295.44s20.66-4.85,12.08-26.38c-7.24-18.18-2.28-38.55-.55-44.47a.4.4,0,0,1,.79.06c.61,4.46,1.87,16.3-1.13,21.77-3.73,6.81-20.43,22.86-18,29.9S485.51,280.05,494.31,295.44Z"/><path class="cls-2" d="M499.26,294.65s-11.62-10-16.38-3.69S468.46,353.19,438,347.4c-24.41-4.64-30.23-32.53-58.82-35.08-11.59-1-19.91-7.05-71.14,46.33s-58-8.41-89.45-13c-39.52-5.79-64.82,42.68-62.18,48s8.35,12,16,1.24,26.48-30.76,38.26-30.62c21.41.24,39.68,46.79,69.07,39.74s54.08-31.63,69.3-50.82c18.53-23.36,40.63-14.27,60.84,7.77s62.07,20.66,82.74-20.68C509,307.5,499.26,294.65,499.26,294.65Z"/><path class="cls-2" d="M494.7,289.59s20.66-4.84,12.08-26.38c-7.24-18.18-2.27-38.55-.54-44.47a.41.41,0,0,1,.79.06c.61,4.47,1.86,16.3-1.14,21.77-3.73,6.82-20.43,22.87-18,29.9S485.9,274.21,494.7,289.59Z"/><path class="cls-2" d="M92.42,428.28s8.41-14,22.73-13.48,15.16,5.05,24.14-2.26,5.5-6.75,11.09-9.55,10.11-5.06,9.89-3.88-5.26,8.29-7,14-1.93,10.11-5.8,11-17,.43-28.6,8.4-12.47,9.46-12.47,9.46"/></g></g></g></svg>