<svg xmlns="http://www.w3.org/2000/svg" viewBox="0 0 178.55 597.34"><defs><style>.cls-1{fill:#705261;opacity:0.7;}.cls-2{fill:none;stroke:#705261;stroke-miterlimit:10;stroke-width:3px;}</style></defs><title>SchulAsset 9</title><g id="Layer_2" data-name="Layer 2"><g id="Schulmedizin"><g id="Schulmedizin5"><path class="cls-1" d="M117.33,142.81c10.54,6.59,46.08,20.41,61.22-4.6-.15.21-3.07,3.2-37.51-19.76-13.56-9-25-14.76-35.95-17.39l.29-26.36a35.94,35.94,0,1,0-21.84-.26l.28,25.36c-10.88,1.26-22.44,5.34-36.27,12.07C.82,134.6,6.07,183,8.05,196.14c1.91,12.73,8.38,58.54,77.75,80.17L86.66,353C52,365.74,27,390.26,35,421.29c7.45,28.63,29.84,37.34,52.87,43.88l.65,58.33c-27.27,14.18-33.2,29.51-33.77,38-.63,9.37,7.27-16.9,33.94-22.93l.65,58.75H99.54l.69-60.88c16.59-3.61,56.19-15.14,54.63-42.76-2-34.89-32.72-46.65-53.35-53l-.22-.07L102,379c57.44-23.32,70.78-44,68.84-67.17-1.91-22.89-19.3-46.82-67.35-65.62l1.2-108A35.57,35.57,0,0,1,117.33,142.81ZM57.42,156c9.13-9.12,18.33-14.18,26.84-16.6l1.11,99.19C44.2,217.35,35.22,178.18,57.42,156ZM87,385.59l.55,48.74C69.87,423.67,53.36,403.47,87,385.59Zm16.5,131.15c-1.05.42-2.08.83-3.08,1.25l.55-49.13C125.84,477.06,142.26,501.5,103.51,516.74ZM102.34,347.2l.73-65.66C153.37,299.59,131.87,333.2,102.34,347.2Z"/><path class="cls-2" d="M112,139.91c10.53,6.57,46.08,20.4,61.22-4.61-.15.21-3.08,3.21-37.52-19.75-13.56-9-25-14.76-35.95-17.39l.3-26.36a35.93,35.93,0,1,0-21.85-.26l.28,25.35C67.61,98.15,56.05,102.24,42.23,109-4.5,131.69.76,180.06,2.74,193.23c1.9,12.73,8.37,58.54,77.74,80.17l.86,76.73c-34.63,12.71-59.68,37.22-51.61,68.25,7.44,28.63,29.83,37.33,52.86,43.88l.64,58.33C56,534.78,50,550.11,49.48,558.61c-.63,9.37,7.26-16.89,33.93-22.93l.65,58.75H94.23l.68-60.88c16.59-3.6,56.2-15.14,54.63-42.75-2-34.9-32.72-46.66-53.34-53l-.22-.07.69-61.71c57.44-23.32,70.77-44,68.83-67.17-1.9-22.88-19.29-46.81-67.34-65.62l1.2-108A35.76,35.76,0,0,1,112,139.91ZM52.11,153.07C61.23,144,70.44,138.9,79,136.48l1.1,99.17C38.88,214.44,29.9,175.28,52.11,153.07ZM98.19,513.84c-1,.41-2.07.83-3.07,1.25L95.66,466C120.52,474.15,137,498.59,98.19,513.84ZM81.7,382.68l.54,48.74C64.55,420.76,48.05,400.56,81.7,382.68ZM97,344.29l.74-65.65C148.06,296.68,126.55,330.3,97,344.29Z"/></g></g></g></svg>